<svg width="41" height="40" viewBox="0 0 41 40" fill="none" xmlns="http://www.w3.org/2000/svg">
<g filter="url(#filter0_d_1_247)">
<path d="M20.4063 0C17.2417 -3.77363e-08 14.1483 0.938383 11.5171 2.69649C8.88594 4.45459 6.83518 6.95345 5.62418 9.87706C4.41318 12.8007 4.09632 16.0177 4.71368 19.1214C5.33105 22.2251 6.8549 25.0761 9.09254 27.3137C11.3302 29.5513 14.1811 31.0752 17.2848 31.6926C20.3885 32.3099 23.6056 31.9931 26.5292 30.7821C29.4528 29.5711 31.9517 27.5203 33.7098 24.8891C35.4679 22.2579 36.4062 19.1645 36.4062 16L28.4062 16C28.4062 17.5823 27.9371 19.129 27.058 20.4446C26.179 21.7602 24.9295 22.7855 23.4677 23.391C22.0059 23.9965 20.3974 24.155 18.8455 23.8463C17.2937 23.5376 15.8682 22.7757 14.7494 21.6569C13.6306 20.538 12.8686 19.1126 12.56 17.5607C12.2513 16.0089 12.4097 14.4003 13.0152 12.9385C13.6207 11.4767 14.6461 10.2273 15.9617 9.34824C17.2773 8.46919 18.824 8 20.4063 8L20.4063 0Z" fill="white"/>
<path d="M20.4063 0C18.3051 -2.5056e-08 16.2245 0.413852 14.2833 1.21793C12.3421 2.022 10.5783 3.20055 9.09254 4.68629C7.6068 6.17203 6.42825 7.93586 5.62418 9.87707C4.8201 11.8183 4.40625 13.8989 4.40625 16L12.4063 16C12.4062 14.9494 12.6132 13.9091 13.0152 12.9385C13.4173 11.9679 14.0065 11.086 14.7494 10.3431C15.4923 9.60028 16.3742 9.011 17.3448 8.60896C18.3154 8.20693 19.3557 8 20.4063 8L20.4063 0Z" fill="#5CE1E6"/>
<circle cx="20.4062" cy="16" r="5" fill="#5CE1E6"/>
<path d="M25.4062 16C25.4062 15.3434 25.2769 14.6932 25.0256 14.0866C24.7744 13.48 24.4061 12.9288 23.9418 12.4645C23.4775 12.0002 22.9263 11.6319 22.3197 11.3806C21.713 11.1293 21.0629 11 20.4062 11C19.7496 11 19.0995 11.1293 18.4928 11.3806C17.8862 11.6319 17.335 12.0002 16.8707 12.4645C16.4064 12.9288 16.0381 13.48 15.7869 14.0866C15.5356 14.6932 15.4062 15.3434 15.4063 16L20.4062 16H25.4062Z" fill="white"/>
</g>
<defs>
<filter id="filter0_d_1_247" x="0.40625" y="0" width="40" height="40" filterUnits="userSpaceOnUse" color-interpolation-filters="sRGB">
<feFlood flood-opacity="0" result="BackgroundImageFix"/>
<feColorMatrix in="SourceAlpha" type="matrix" values="0 0 0 0 0 0 0 0 0 0 0 0 0 0 0 0 0 0 127 0" result="hardAlpha"/>
<feOffset dy="4"/>
<feGaussianBlur stdDeviation="2"/>
<feComposite in2="hardAlpha" operator="out"/>
<feColorMatrix type="matrix" values="0 0 0 0 0 0 0 0 0 0 0 0 0 0 0 0 0 0 0.25 0"/>
<feBlend mode="normal" in2="BackgroundImageFix" result="effect1_dropShadow_1_247"/>
<feBlend mode="normal" in="SourceGraphic" in2="effect1_dropShadow_1_247" result="shape"/>
</filter>
</defs>
</svg>
