<svg width="197" height="40" viewBox="0 0 197 40" fill="none" xmlns="http://www.w3.org/2000/svg">
<path d="M48.886 8.644C50.4993 8.644 51.9147 8.95933 53.132 9.59C54.364 10.2207 55.31 11.1227 55.97 12.296C56.6447 13.4547 56.982 14.804 56.982 16.344C56.982 17.884 56.6447 19.2333 55.97 20.392C55.31 21.536 54.364 22.4233 53.132 23.054C51.9147 23.6847 50.4993 24 48.886 24H43.518V8.644H48.886ZM48.776 21.382C50.3893 21.382 51.636 20.942 52.516 20.062C53.396 19.182 53.836 17.9427 53.836 16.344C53.836 14.7453 53.396 13.4987 52.516 12.604C51.636 11.6947 50.3893 11.24 48.776 11.24H46.598V21.382H48.776ZM70.6175 17.642C70.6175 18.082 70.5882 18.478 70.5295 18.83H61.6195C61.6929 19.71 62.0009 20.3993 62.5435 20.898C63.0862 21.3967 63.7535 21.646 64.5455 21.646C65.6895 21.646 66.5035 21.1547 66.9875 20.172H70.3095C69.9575 21.3453 69.2829 22.3133 68.2855 23.076C67.2882 23.824 66.0635 24.198 64.6115 24.198C63.4382 24.198 62.3822 23.9413 61.4435 23.428C60.5195 22.9 59.7935 22.1593 59.2655 21.206C58.7522 20.2527 58.4955 19.1527 58.4955 17.906C58.4955 16.6447 58.7522 15.5373 59.2655 14.584C59.7789 13.6307 60.4975 12.8973 61.4215 12.384C62.3455 11.8707 63.4089 11.614 64.6115 11.614C65.7702 11.614 66.8042 11.8633 67.7135 12.362C68.6375 12.8607 69.3489 13.572 69.8475 14.496C70.3609 15.4053 70.6175 16.454 70.6175 17.642ZM67.4275 16.762C67.4129 15.97 67.1269 15.3393 66.5695 14.87C66.0122 14.386 65.3302 14.144 64.5235 14.144C63.7609 14.144 63.1155 14.3787 62.5875 14.848C62.0742 15.3027 61.7589 15.9407 61.6415 16.762H67.4275ZM84.1957 17.642C84.1957 18.082 84.1663 18.478 84.1077 18.83H75.1977C75.271 19.71 75.579 20.3993 76.1217 20.898C76.6643 21.3967 77.3317 21.646 78.1237 21.646C79.2677 21.646 80.0817 21.1547 80.5657 20.172H83.8877C83.5357 21.3453 82.861 22.3133 81.8637 23.076C80.8663 23.824 79.6417 24.198 78.1897 24.198C77.0163 24.198 75.9603 23.9413 75.0217 23.428C74.0977 22.9 73.3717 22.1593 72.8437 21.206C72.3303 20.2527 72.0737 19.1527 72.0737 17.906C72.0737 16.6447 72.3303 15.5373 72.8437 14.584C73.357 13.6307 74.0757 12.8973 74.9997 12.384C75.9237 11.8707 76.987 11.614 78.1897 11.614C79.3483 11.614 80.3823 11.8633 81.2917 12.362C82.2157 12.8607 82.927 13.572 83.4257 14.496C83.939 15.4053 84.1957 16.454 84.1957 17.642ZM81.0057 16.762C80.991 15.97 80.705 15.3393 80.1477 14.87C79.5903 14.386 78.9083 14.144 78.1017 14.144C77.339 14.144 76.6937 14.3787 76.1657 14.848C75.6523 15.3027 75.337 15.9407 75.2197 16.762H81.0057ZM89.5238 13.572C89.9198 13.0147 90.4624 12.5527 91.1518 12.186C91.8558 11.8047 92.6551 11.614 93.5498 11.614C94.5911 11.614 95.5298 11.8707 96.3658 12.384C97.2164 12.8973 97.8838 13.6307 98.3678 14.584C98.8664 15.5227 99.1158 16.6153 99.1158 17.862C99.1158 19.1087 98.8664 20.216 98.3678 21.184C97.8838 22.1373 97.2164 22.878 96.3658 23.406C95.5298 23.934 94.5911 24.198 93.5498 24.198C92.6551 24.198 91.8631 24.0147 91.1738 23.648C90.4991 23.2813 89.9491 22.8193 89.5238 22.262V29.808H86.4438V11.812H89.5238V13.572ZM95.9698 17.862C95.9698 17.1287 95.8158 16.498 95.5078 15.97C95.2144 15.4273 94.8184 15.0167 94.3198 14.738C93.8358 14.4593 93.3078 14.32 92.7358 14.32C92.1784 14.32 91.6504 14.4667 91.1518 14.76C90.6678 15.0387 90.2718 15.4493 89.9638 15.992C89.6704 16.5347 89.5238 17.1727 89.5238 17.906C89.5238 18.6393 89.6704 19.2773 89.9638 19.82C90.2718 20.3627 90.6678 20.7807 91.1518 21.074C91.6504 21.3527 92.1784 21.492 92.7358 21.492C93.3078 21.492 93.8358 21.3453 94.3198 21.052C94.8184 20.7587 95.2144 20.3407 95.5078 19.798C95.8158 19.2553 95.9698 18.61 95.9698 17.862ZM161.045 21.558H166.105V24H157.965V8.644H161.045V21.558ZM167.271 17.862C167.271 16.63 167.513 15.5373 167.997 14.584C168.496 13.6307 169.163 12.8973 169.999 12.384C170.85 11.8707 171.796 11.614 172.837 11.614C173.746 11.614 174.538 11.7973 175.213 12.164C175.902 12.5307 176.452 12.9927 176.863 13.55V11.812H179.965V24H176.863V22.218C176.467 22.79 175.917 23.2667 175.213 23.648C174.524 24.0147 173.724 24.198 172.815 24.198C171.788 24.198 170.85 23.934 169.999 23.406C169.163 22.878 168.496 22.1373 167.997 21.184C167.513 20.216 167.271 19.1087 167.271 17.862ZM176.863 17.906C176.863 17.158 176.716 16.52 176.423 15.992C176.13 15.4493 175.734 15.0387 175.235 14.76C174.736 14.4667 174.201 14.32 173.629 14.32C173.057 14.32 172.529 14.4593 172.045 14.738C171.561 15.0167 171.165 15.4273 170.857 15.97C170.564 16.498 170.417 17.1287 170.417 17.862C170.417 18.5953 170.564 19.2407 170.857 19.798C171.165 20.3407 171.561 20.7587 172.045 21.052C172.544 21.3453 173.072 21.492 173.629 21.492C174.201 21.492 174.736 21.3527 175.235 21.074C175.734 20.7807 176.13 20.37 176.423 19.842C176.716 19.2993 176.863 18.654 176.863 17.906ZM186.053 13.594C186.449 13.0073 186.992 12.5307 187.681 12.164C188.385 11.7973 189.184 11.614 190.079 11.614C191.12 11.614 192.059 11.8707 192.895 12.384C193.746 12.8973 194.413 13.6307 194.897 14.584C195.396 15.5227 195.645 16.6153 195.645 17.862C195.645 19.1087 195.396 20.216 194.897 21.184C194.413 22.1373 193.746 22.878 192.895 23.406C192.059 23.934 191.12 24.198 190.079 24.198C189.17 24.198 188.37 24.022 187.681 23.67C187.006 23.3033 186.464 22.834 186.053 22.262V24H182.973V7.72H186.053V13.594ZM192.499 17.862C192.499 17.1287 192.345 16.498 192.037 15.97C191.744 15.4273 191.348 15.0167 190.849 14.738C190.365 14.4593 189.837 14.32 189.265 14.32C188.708 14.32 188.18 14.4667 187.681 14.76C187.197 15.0387 186.801 15.4493 186.493 15.992C186.2 16.5347 186.053 17.1727 186.053 17.906C186.053 18.6393 186.2 19.2773 186.493 19.82C186.801 20.3627 187.197 20.7807 187.681 21.074C188.18 21.3527 188.708 21.492 189.265 21.492C189.837 21.492 190.365 21.3453 190.849 21.052C191.348 20.7587 191.744 20.3407 192.037 19.798C192.345 19.2553 192.499 18.61 192.499 17.862Z" fill="white"/>
<path d="M112.552 13.396C112.552 14.2173 112.354 14.9873 111.958 15.706C111.577 16.4247 110.968 17.004 110.132 17.444C109.311 17.884 108.269 18.104 107.008 18.104H104.434V24H101.354V8.644H107.008C108.196 8.644 109.208 8.84933 110.044 9.26C110.88 9.67067 111.503 10.2353 111.914 10.954C112.339 11.6727 112.552 12.4867 112.552 13.396ZM106.876 15.618C107.727 15.618 108.357 15.4273 108.768 15.046C109.179 14.65 109.384 14.1 109.384 13.396C109.384 11.9 108.548 11.152 106.876 11.152H104.434V15.618H106.876ZM120.151 24.198C118.977 24.198 117.921 23.9413 116.983 23.428C116.044 22.9 115.303 22.1593 114.761 21.206C114.233 20.2527 113.969 19.1527 113.969 17.906C113.969 16.6593 114.24 15.5593 114.783 14.606C115.34 13.6527 116.095 12.9193 117.049 12.406C118.002 11.878 119.065 11.614 120.239 11.614C121.412 11.614 122.475 11.878 123.429 12.406C124.382 12.9193 125.13 13.6527 125.673 14.606C126.23 15.5593 126.509 16.6593 126.509 17.906C126.509 19.1527 126.223 20.2527 125.651 21.206C125.093 22.1593 124.331 22.9 123.363 23.428C122.409 23.9413 121.339 24.198 120.151 24.198ZM120.151 21.514C120.708 21.514 121.229 21.382 121.713 21.118C122.211 20.8393 122.607 20.4287 122.901 19.886C123.194 19.3433 123.341 18.6833 123.341 17.906C123.341 16.7473 123.033 15.86 122.417 15.244C121.815 14.6133 121.075 14.298 120.195 14.298C119.315 14.298 118.574 14.6133 117.973 15.244C117.386 15.86 117.093 16.7473 117.093 17.906C117.093 19.0647 117.379 19.9593 117.951 20.59C118.537 21.206 119.271 21.514 120.151 21.514ZM130.33 10.36C129.787 10.36 129.333 10.1913 128.966 9.854C128.614 9.502 128.438 9.06933 128.438 8.556C128.438 8.04267 128.614 7.61733 128.966 7.28C129.333 6.928 129.787 6.752 130.33 6.752C130.873 6.752 131.32 6.928 131.672 7.28C132.039 7.61733 132.222 8.04267 132.222 8.556C132.222 9.06933 132.039 9.502 131.672 9.854C131.32 10.1913 130.873 10.36 130.33 10.36ZM131.848 11.812V24H128.768V11.812H131.848ZM141.645 11.636C143.097 11.636 144.27 12.098 145.165 13.022C146.06 13.9313 146.507 15.2073 146.507 16.85V24H143.427V17.268C143.427 16.3 143.185 15.5593 142.701 15.046C142.217 14.518 141.557 14.254 140.721 14.254C139.87 14.254 139.196 14.518 138.697 15.046C138.213 15.5593 137.971 16.3 137.971 17.268V24H134.891V11.812H137.971V13.33C138.382 12.802 138.902 12.3913 139.533 12.098C140.178 11.79 140.882 11.636 141.645 11.636ZM153.022 14.342V20.238C153.022 20.6487 153.117 20.9493 153.308 21.14C153.513 21.316 153.851 21.404 154.32 21.404H155.75V24H153.814C151.218 24 149.92 22.7387 149.92 20.216V14.342H148.468V11.812H149.92V8.798H153.022V11.812H155.75V14.342H153.022Z" fill="#7DE7EB"/>
<g filter="url(#filter0_d_15_20)">
<path d="M20.4063 0C17.2417 -3.77363e-08 14.1483 0.938383 11.5171 2.69649C8.88594 4.45459 6.83518 6.95345 5.62418 9.87706C4.41318 12.8007 4.09632 16.0177 4.71368 19.1214C5.33105 22.2251 6.8549 25.0761 9.09254 27.3137C11.3302 29.5513 14.1811 31.0752 17.2848 31.6926C20.3885 32.3099 23.6056 31.9931 26.5292 30.7821C29.4528 29.5711 31.9517 27.5203 33.7098 24.8891C35.4679 22.2579 36.4062 19.1645 36.4062 16L28.4062 16C28.4062 17.5823 27.9371 19.129 27.058 20.4446C26.179 21.7602 24.9295 22.7855 23.4677 23.391C22.0059 23.9965 20.3974 24.155 18.8455 23.8463C17.2937 23.5376 15.8682 22.7757 14.7494 21.6569C13.6306 20.538 12.8686 19.1126 12.56 17.5607C12.2513 16.0089 12.4097 14.4003 13.0152 12.9385C13.6207 11.4767 14.6461 10.2273 15.9617 9.34824C17.2773 8.46919 18.824 8 20.4063 8L20.4063 0Z" fill="white"/>
<path d="M20.4063 0C18.3051 -2.5056e-08 16.2245 0.413852 14.2833 1.21793C12.3421 2.022 10.5783 3.20055 9.09254 4.68629C7.6068 6.17203 6.42825 7.93586 5.62418 9.87707C4.8201 11.8183 4.40625 13.8989 4.40625 16L12.4063 16C12.4062 14.9494 12.6132 13.9091 13.0152 12.9385C13.4173 11.9679 14.0065 11.086 14.7494 10.3431C15.4923 9.60028 16.3742 9.011 17.3448 8.60896C18.3154 8.20693 19.3557 8 20.4063 8L20.4063 0Z" fill="#5CE1E6"/>
<circle cx="20.4062" cy="16" r="5" fill="#5CE1E6"/>
<path d="M25.4062 16C25.4062 15.3434 25.2769 14.6932 25.0256 14.0866C24.7744 13.48 24.4061 12.9288 23.9418 12.4645C23.4775 12.0002 22.9263 11.6319 22.3197 11.3806C21.713 11.1293 21.0629 11 20.4062 11C19.7496 11 19.0995 11.1293 18.4928 11.3806C17.8862 11.6319 17.335 12.0002 16.8707 12.4645C16.4064 12.9288 16.0381 13.48 15.7869 14.0866C15.5356 14.6932 15.4062 15.3434 15.4063 16L20.4062 16H25.4062Z" fill="white"/>
</g>
<defs>
<filter id="filter0_d_15_20" x="0.40625" y="0" width="40" height="40" filterUnits="userSpaceOnUse" color-interpolation-filters="sRGB">
<feFlood flood-opacity="0" result="BackgroundImageFix"/>
<feColorMatrix in="SourceAlpha" type="matrix" values="0 0 0 0 0 0 0 0 0 0 0 0 0 0 0 0 0 0 127 0" result="hardAlpha"/>
<feOffset dy="4"/>
<feGaussianBlur stdDeviation="2"/>
<feComposite in2="hardAlpha" operator="out"/>
<feColorMatrix type="matrix" values="0 0 0 0 0 0 0 0 0 0 0 0 0 0 0 0 0 0 0.25 0"/>
<feBlend mode="normal" in2="BackgroundImageFix" result="effect1_dropShadow_15_20"/>
<feBlend mode="normal" in="SourceGraphic" in2="effect1_dropShadow_15_20" result="shape"/>
</filter>
</defs>
</svg>
